<svg xmlns="http://www.w3.org/2000/svg" width="84.169" height="18.975" viewBox="0 0 140.282 31.625">
  <metadata><?xpacket begin="﻿" id="W5M0MpCehiHzreSzNTczkc9d"?>
<x:xmpmeta xmlns:x="adobe:ns:meta/" x:xmptk="Adobe XMP Core 5.6-c138 79.159824, 2016/09/14-01:09:01        ">
   <rdf:RDF xmlns:rdf="http://www.w3.org/1999/02/22-rdf-syntax-ns#">
      <rdf:Description rdf:about=""/>
   </rdf:RDF>
</x:xmpmeta>
                                                                                                    
                                                                                                    
                                                                                                    
                                                                                                    
                                                                                                    
                                                                                                    
                                                                                                    
                                                                                                    
                                                                                                    
                                                                                                    
                                                                                                    
                                                                                                    
                                                                                                    
                                                                                                    
                                                                                                    
                                                                                                    
                                                                                                    
                                                                                                    
                                                                                                    
                                                                                                    
                           
<?xpacket end="w"?></metadata>
<defs>
    <style>
      .cls-1 {
        fill: #fff;
        stroke: #000;
        stroke-width: 1px;
        fill-rule: evenodd;
      }
    </style>
  </defs>
  <path id="Bangunan" class="cls-1" d="M123.661,215.146a3.934,3.934,0,0,0-1.35-1.221,10,10,0,0,0-2.3-.936,26.974,26.974,0,0,0-3.312-.691q2.409-.831,4.37-1.685a18.758,18.758,0,0,0,3.361-1.847,8.294,8.294,0,0,0,2.165-2.149,4.61,4.61,0,0,0,.765-2.6,2.652,2.652,0,0,0-.374-1.44,2.891,2.891,0,0,0-1-.961,4.654,4.654,0,0,0-1.432-.529,8.458,8.458,0,0,0-1.669-.162,13.2,13.2,0,0,0-1.334.065q-0.653.065-1.343,0.2t-1.465.358q-0.774.22-1.7,0.545-0.618.213-1,.334c-0.255.081-.461,0.144-0.618,0.187a2.5,2.5,0,0,1-.391.082,2.99,2.99,0,0,1-.317.016q-0.342,0-.773-0.041t-0.708-.04a0.817,0.817,0,0,0-.546.219,2.606,2.606,0,0,0-.464.546,3.9,3.9,0,0,0-.358.7c-0.1.25-.173,0.472-0.228,0.668l0.017-.017-0.082.277,0.017,0.212c0.01,0.152.024,0.317,0.04,0.5s0.03,0.345.041,0.5,0.016,0.244.016,0.276l-0.455,1.888q-0.342,1.335-.741,2.824t-0.838,3.019q-0.439,1.53-.912,3.052t-0.927,2.905q-0.31.75-.546,1.506a5.305,5.305,0,0,0-.236,1.587,1.012,1.012,0,0,0,.049.3,1.077,1.077,0,0,0,.139.285,0.975,0.975,0,0,0,.2.22,0.391,0.391,0,0,0,.244.089h0.456a2.845,2.845,0,0,0,.871-0.138,2.778,2.778,0,0,0,.822-0.432,6.3,6.3,0,0,0,.455.651,1.878,1.878,0,0,0,.44.407,1.47,1.47,0,0,0,.5.2,3.137,3.137,0,0,0,.643.057,8.07,8.07,0,0,0,1.595-.171,17.323,17.323,0,0,0,1.734-.448q0.886-.276,1.757-0.643t1.66-.756q0.79-.391,1.465-0.774t1.148-.708a7.263,7.263,0,0,0,2.205-2.311,4.922,4.922,0,0,0,.692-2.409A2.825,2.825,0,0,0,123.661,215.146Zm-3.32.805a1.376,1.376,0,0,1,.684,1.132,1.763,1.763,0,0,1-.179.765,3.5,3.5,0,0,1-.456.708,4.408,4.408,0,0,1-.619.61,6.685,6.685,0,0,1-.651.472q-0.83.44-1.692,0.822t-1.7.667q-0.838.285-1.62,0.472a10.861,10.861,0,0,1-1.432.253c-0.032,0-.144-0.009-0.334-0.025l-0.659-.057-1.074-.114q0.472-1.856.936-3.686t1.082-3.833c0.152,0.043.393,0.1,0.725,0.162s0.7,0.133,1.1.2,0.825,0.141,1.27.212,0.86,0.138,1.245.2,0.721,0.125,1.009.179,0.485,0.092.594,0.114A5.187,5.187,0,0,1,120.341,215.951Zm-6.567-5.672q0.171-.552.309-1.009c0.092-.3.171-0.567,0.236-0.789s0.108-.388.13-0.5a1.883,1.883,0,0,0,.236-0.455c0.082-.206.16-0.421,0.236-0.643s0.144-.426.2-0.611a2.079,2.079,0,0,1,.138-0.358,2.746,2.746,0,0,1,.993-0.716,12.18,12.18,0,0,1,1.709-.683,17.815,17.815,0,0,1,1.986-.513,9.516,9.516,0,0,1,1.839-.2,3.674,3.674,0,0,1,.984.114,1.8,1.8,0,0,1,.643.31,1.226,1.226,0,0,1,.358.439,1.148,1.148,0,0,1,.114.488,1.707,1.707,0,0,1-.187.757,3.464,3.464,0,0,1-.488.733,4.931,4.931,0,0,1-.684.651,5.38,5.38,0,0,1-.773.512h0.016q-1.09.537-2.189,1.066t-2.164,1q-1.067.472-2.076,0.871t-1.92.692Q113.6,210.834,113.774,210.279Zm21.541,13.42a0.557,0.557,0,0,0,.212.293,1.191,1.191,0,0,0,.464.187,3.99,3.99,0,0,0,.8.065,1.228,1.228,0,0,0,.635-0.146,1.512,1.512,0,0,0,.407-0.35,1.4,1.4,0,0,0,.236-0.423c0.049-.147.089-0.269,0.122-0.367a5.5,5.5,0,0,0,.195-1.09q0.05-.587.114-1.286l2.149-8.577c0.086-.261.173-0.518,0.26-0.774a2.47,2.47,0,0,0,.13-0.805,1.992,1.992,0,0,0-.089-0.594,1.381,1.381,0,0,0-.285-0.5,1.362,1.362,0,0,0-.521-0.35,2.2,2.2,0,0,0-.814-0.13,3.582,3.582,0,0,0-.5.033q-0.237.032-.61,0.113c-0.25-.032-0.529-0.065-0.839-0.1a7.944,7.944,0,0,0-.838-0.049,8.773,8.773,0,0,0-1.709.171,4.587,4.587,0,0,0-1.725.773,14.562,14.562,0,0,0-3.736,3.735,14.225,14.225,0,0,0-2.124,4.761q-0.145.57-.219,1.009a5.135,5.135,0,0,0-.074.847,3.215,3.215,0,0,0,.383,1.595,4.838,4.838,0,0,0,1.245,1.367,2.422,2.422,0,0,0,.749.39,2.9,2.9,0,0,0,.928.147,2.985,2.985,0,0,0,1.293-.334,10.021,10.021,0,0,0,1.392-.822q0.7-.487,1.351-1.025t1.188-.928a9.838,9.838,0,0,1-.114,1.636,6.788,6.788,0,0,0-.114,1.131A1.481,1.481,0,0,0,135.315,223.7Zm-4.842-6.983a11.614,11.614,0,0,1,.952-1.66,12.215,12.215,0,0,1,1.229-1.513,9.334,9.334,0,0,1,1.424-1.229,7.3,7.3,0,0,1,1.554-.83,4.459,4.459,0,0,1,1.6-.31,0.375,0.375,0,0,1,.374.2,0.953,0.953,0,0,1,.1.415,7.786,7.786,0,0,1-.09,1.107,8.963,8.963,0,0,1-.22,1.09,6.623,6.623,0,0,1-.724,1.636,13.625,13.625,0,0,1-1.139,1.6,18.882,18.882,0,0,1-1.367,1.489q-0.725.708-1.425,1.278a6.182,6.182,0,0,1-1.114.724,2.786,2.786,0,0,1-1.278.3,0.542,0.542,0,0,1-.57-0.349,2.253,2.253,0,0,1-.13-0.79,4.932,4.932,0,0,1,.073-0.846,6.5,6.5,0,0,1,.139-0.651A9.746,9.746,0,0,1,130.473,216.716Zm25.423-5.7a1.745,1.745,0,0,1,.22.887,5.221,5.221,0,0,1-.147,1.172q-0.145.635-.382,1.334t-0.537,1.449q-0.3.749-.611,1.5-0.39.929-.724,1.823t-0.586,1.685a14.738,14.738,0,0,0-.39,1.448,5.546,5.546,0,0,0-.139,1.115,1.017,1.017,0,0,0,.244.757,1.266,1.266,0,0,0,.879.236,2.562,2.562,0,0,0,.692-0.081,1.266,1.266,0,0,0,.5-0.269,1.626,1.626,0,0,0,.367-0.5,5.528,5.528,0,0,0,.3-0.765q0.52-1.677,1.131-3.3t1.139-3.092q0.53-1.473.879-2.759a8.862,8.862,0,0,0,.35-2.295,3.437,3.437,0,0,0-.879-2.6,3.393,3.393,0,0,0-2.441-.838,4.813,4.813,0,0,0-1.555.268,9.8,9.8,0,0,0-1.57.7,14.757,14.757,0,0,0-1.522.968q-0.741.537-1.424,1.075l0.716-1.693a1.784,1.784,0,0,0,.1-0.277,0.935,0.935,0,0,0,.032-0.179,0.91,0.91,0,0,0-.4-0.8,1.741,1.741,0,0,0-1.017-.277,2.145,2.145,0,0,0-.887.187,0.883,0.883,0,0,0-.513.464q-0.455,1.237-.854,2.254T146.1,212.6q-0.366.951-.716,1.888t-0.692,1.993q-0.342,1.059-.675,2.3t-0.692,2.784a2.934,2.934,0,0,0-.1.561c-0.011.168-.016,0.328-0.016,0.48a1.357,1.357,0,0,0,.391,1.14,1.637,1.637,0,0,0,1.009.293,2.264,2.264,0,0,0,.276-0.025,1.2,1.2,0,0,0,.375-0.122,1.363,1.363,0,0,0,.374-0.285,1.119,1.119,0,0,0,.261-0.5q0.129-.52.219-0.944c0.06-.282.111-0.545,0.155-0.79s0.081-.474.114-0.691,0.076-.44.13-0.668q0.147-.649.366-1.408t0.464-1.481q0.245-.723.5-1.334a7.4,7.4,0,0,1,.481-0.985,2.747,2.747,0,0,0,.651-0.382q0.325-.254.683-0.562,0.7-.618,1.424-1.2t1.425-1.034a8.311,8.311,0,0,1,1.35-.724,3.214,3.214,0,0,1,1.221-.269A0.865,0.865,0,0,1,155.9,211.02Zm9.937,19.987a8.569,8.569,0,0,0,2.392-1.384,9.881,9.881,0,0,0,1.856-2.026,16.119,16.119,0,0,0,1.391-2.458,21.258,21.258,0,0,0,1.009-2.669q0.416-1.367.692-2.653,0.162-.732.342-1.652t0.358-1.872q0.178-.951.35-1.888t0.293-1.692q0.122-.757.2-1.27a6.381,6.381,0,0,0,.073-0.643,1.074,1.074,0,0,0-.04-0.268,1.126,1.126,0,0,0-.106-0.269,3.125,3.125,0,0,0-.651-0.789,2.608,2.608,0,0,0-.773-0.456,3.612,3.612,0,0,0-.879-0.2,9.411,9.411,0,0,0-.969-0.048,6.621,6.621,0,0,0-2.278.39,7.471,7.471,0,0,0-2.149,1.27,18.906,18.906,0,0,0-1.66,1.522,16.34,16.34,0,0,0-1.465,1.733,13.319,13.319,0,0,0-1.171,1.921,9.737,9.737,0,0,0-.765,2.083c-0.055.239-.114,0.51-0.179,0.814a4,4,0,0,0-.1.846,2.315,2.315,0,0,0,.325,1.18,4.021,4.021,0,0,0,.8.985,4.389,4.389,0,0,0,1,.683,2.188,2.188,0,0,0,.952.261,4.118,4.118,0,0,0,1.44-.269,8.337,8.337,0,0,0,1.425-.692,12.536,12.536,0,0,0,1.367-.96q0.668-.537,1.286-1.074c-0.076.282-.139,0.535-0.188,0.757s-0.105.437-.17,0.643q-0.244.912-.513,1.79a12.592,12.592,0,0,1-.667,1.717,9.589,9.589,0,0,1-2.385,3.133,2.6,2.6,0,0,1-.708.3c-0.288.082-.594,0.155-0.92,0.22a12.194,12.194,0,0,0-1.236.318,2.287,2.287,0,0,0-.749.382,1.481,1.481,0,0,0-.423.562,5.323,5.323,0,0,0-.277.87,1.528,1.528,0,0,0-.049.375,0.957,0.957,0,0,0,.1.447,1.055,1.055,0,0,0,.236.31,0.947,0.947,0,0,0,.594.236A8.293,8.293,0,0,0,165.833,231.007Zm-0.92-14.225q0.285-.546.627-1.083a7.44,7.44,0,0,1,.643-0.871q0.414-.5.919-1.025t1.074-1.042a13.844,13.844,0,0,1,1.132-.919,7.674,7.674,0,0,1,1.066-.659,2.05,2.05,0,0,1,.9-0.253h0.146a2.756,2.756,0,0,0,.2.66,1.174,1.174,0,0,1,.114.512,3.8,3.8,0,0,1-.261.936q-0.212.529-.48,1.058t-0.537.985c-0.179.3-.323,0.542-0.431,0.716A7.98,7.98,0,0,1,169,217.1a13.534,13.534,0,0,1-1.367,1.269,9.008,9.008,0,0,1-1.448.969,2.794,2.794,0,0,1-1.262.382,0.479,0.479,0,0,1-.472-0.26,1.365,1.365,0,0,1-.13-0.619,1.964,1.964,0,0,1,.041-0.4c0.027-.136.057-0.269,0.089-0.4A5.685,5.685,0,0,1,164.913,216.782Zm15.389-6.4q-0.13.5-.317,1.2t-0.432,1.628q-0.243.927-.553,2.148-0.1.391-.252,0.887c-0.1.332-.2,0.684-0.285,1.058s-0.163.763-.228,1.164a7.532,7.532,0,0,0-.1,1.2,6.2,6.2,0,0,0,.375,2.115,4.7,4.7,0,0,0,1.269,1.872,3.584,3.584,0,0,0,.521.383,6.029,6.029,0,0,0,.684.366,6.177,6.177,0,0,0,.691.268,1.881,1.881,0,0,0,.546.106,4,4,0,0,0,1.961-.5,7.94,7.94,0,0,0,1.668-1.229,12.8,12.8,0,0,0,1.4-1.579q0.635-.846,1.172-1.53l0.146-.049,0.179,3.077a3.146,3.146,0,0,0,.065.447,0.906,0.906,0,0,0,.2.4,1.063,1.063,0,0,0,.431.285,2.166,2.166,0,0,0,.749.106,1.271,1.271,0,0,0,.968-0.31,2.306,2.306,0,0,0,.464-0.944,2.407,2.407,0,0,0,.073-0.488c0.017-.217.025-0.466,0.025-0.749q0-.927-0.057-1.757t-0.057-1.661a9.266,9.266,0,0,1,.073-1.1q0.073-.611.195-1.286t0.277-1.351q0.155-.675.3-1.278,0.261-1.024.48-2.042a8.343,8.343,0,0,0,.22-1.717,3.527,3.527,0,0,0-.114-0.985,1.415,1.415,0,0,0-.342-0.61,1.23,1.23,0,0,0-.553-0.318,2.791,2.791,0,0,0-.732-0.089,1.363,1.363,0,0,0-.9.236,1.55,1.55,0,0,0-.4.854l-0.423,2.165q-0.1.472-.276,1.261t-0.432,1.685q-0.252.9-.586,1.782a10.9,10.9,0,0,1-.724,1.571l-0.423.732q-0.326.537-.838,1.229a10.429,10.429,0,0,1-1.148,1.3,7.609,7.609,0,0,1-1.334,1.034,2.664,2.664,0,0,1-1.384.423,0.976,0.976,0,0,1-.667-0.244,1.93,1.93,0,0,1-.456-0.611,3.365,3.365,0,0,1-.268-0.789,3.709,3.709,0,0,1-.09-0.765,4.467,4.467,0,0,1,.171-1.009q0.171-.667.488-1.725T182.5,214.1q0.456-1.5,1.009-3.54a2.178,2.178,0,0,0,.1-0.667,1.555,1.555,0,0,0-.187-0.782,0.682,0.682,0,0,0-.61-0.341c-0.163-.033-0.332-0.065-0.5-0.1-0.152-.022-0.309-0.046-0.472-0.073a2.647,2.647,0,0,0-.423-0.041,0.483,0.483,0,0,0-.179.049,1.082,1.082,0,0,0-.253.163,1.31,1.31,0,0,0-.26.3,1.468,1.468,0,0,0-.187.447Q180.433,209.889,180.3,210.385Zm28.247,0.635a1.745,1.745,0,0,1,.22.887,5.221,5.221,0,0,1-.147,1.172q-0.146.635-.382,1.334t-0.537,1.449q-0.3.749-.611,1.5-0.39.929-.724,1.823t-0.586,1.685a14.738,14.738,0,0,0-.39,1.448,5.546,5.546,0,0,0-.139,1.115,1.017,1.017,0,0,0,.244.757,1.266,1.266,0,0,0,.879.236,2.562,2.562,0,0,0,.692-0.081,1.266,1.266,0,0,0,.5-0.269,1.626,1.626,0,0,0,.367-0.5,5.528,5.528,0,0,0,.3-0.765q0.52-1.677,1.131-3.3t1.139-3.092q0.529-1.473.879-2.759a8.862,8.862,0,0,0,.35-2.295,3.437,3.437,0,0,0-.879-2.6,3.393,3.393,0,0,0-2.441-.838,4.813,4.813,0,0,0-1.555.268,9.8,9.8,0,0,0-1.57.7,14.757,14.757,0,0,0-1.522.968q-0.741.537-1.424,1.075l0.716-1.693a1.784,1.784,0,0,0,.1-0.277,0.935,0.935,0,0,0,.032-0.179,0.91,0.91,0,0,0-.4-0.8,1.741,1.741,0,0,0-1.017-.277,2.145,2.145,0,0,0-.887.187,0.88,0.88,0,0,0-.513.464q-0.456,1.237-.854,2.254t-0.765,1.97q-0.366.951-.716,1.888t-0.692,1.993q-0.342,1.059-.675,2.3t-0.692,2.784a2.934,2.934,0,0,0-.1.561c-0.011.168-.016,0.328-0.016,0.48a1.357,1.357,0,0,0,.391,1.14,1.637,1.637,0,0,0,1.009.293,2.264,2.264,0,0,0,.276-0.025,1.205,1.205,0,0,0,.375-0.122,1.363,1.363,0,0,0,.374-0.285,1.108,1.108,0,0,0,.26-0.5q0.13-.52.22-0.944c0.06-.282.111-0.545,0.155-0.79s0.081-.474.114-0.691,0.076-.44.13-0.668q0.147-.649.366-1.408T200,217.123q0.244-.723.5-1.334a7.4,7.4,0,0,1,.481-0.985,2.747,2.747,0,0,0,.651-0.382q0.326-.254.683-0.562,0.7-.618,1.424-1.2t1.425-1.034a8.311,8.311,0,0,1,1.35-.724,3.214,3.214,0,0,1,1.221-.269A0.865,0.865,0,0,1,208.549,211.02ZM222.538,223.7a0.557,0.557,0,0,0,.212.293,1.191,1.191,0,0,0,.464.187,3.99,3.99,0,0,0,.805.065,1.228,1.228,0,0,0,.635-0.146,1.5,1.5,0,0,0,.407-0.35,1.4,1.4,0,0,0,.236-0.423c0.049-.147.09-0.269,0.122-0.367a5.5,5.5,0,0,0,.195-1.09q0.049-.587.114-1.286l2.149-8.577c0.087-.261.173-0.518,0.26-0.774a2.47,2.47,0,0,0,.13-0.805,1.992,1.992,0,0,0-.089-0.594,1.381,1.381,0,0,0-.285-0.5,1.362,1.362,0,0,0-.521-0.35,2.2,2.2,0,0,0-.813-0.13,3.586,3.586,0,0,0-.5.033c-0.157.021-.361,0.059-0.61,0.113-0.25-.032-0.529-0.065-0.838-0.1a7.977,7.977,0,0,0-.839-0.049,8.773,8.773,0,0,0-1.709.171,4.587,4.587,0,0,0-1.725.773,14.542,14.542,0,0,0-3.735,3.735,14.186,14.186,0,0,0-2.124,4.761q-0.147.57-.22,1.009a5.13,5.13,0,0,0-.073.847,3.215,3.215,0,0,0,.382,1.595,4.838,4.838,0,0,0,1.245,1.367,2.422,2.422,0,0,0,.749.39,2.9,2.9,0,0,0,.928.147,2.992,2.992,0,0,0,1.294-.334,10.012,10.012,0,0,0,1.391-.822q0.7-.487,1.351-1.025t1.188-.928a9.838,9.838,0,0,1-.114,1.636,6.788,6.788,0,0,0-.114,1.131A1.481,1.481,0,0,0,222.538,223.7Zm-4.842-6.983a11.614,11.614,0,0,1,.952-1.66,12.215,12.215,0,0,1,1.229-1.513,9.334,9.334,0,0,1,1.424-1.229,7.3,7.3,0,0,1,1.555-.83,4.45,4.45,0,0,1,1.6-.31,0.375,0.375,0,0,1,.374.2,0.953,0.953,0,0,1,.1.415,7.786,7.786,0,0,1-.09,1.107,8.976,8.976,0,0,1-.219,1.09,6.627,6.627,0,0,1-.725,1.636,13.509,13.509,0,0,1-1.139,1.6,18.692,18.692,0,0,1-1.367,1.489q-0.725.708-1.424,1.278a6.225,6.225,0,0,1-1.115.724,2.783,2.783,0,0,1-1.278.3,0.542,0.542,0,0,1-.57-0.349,2.253,2.253,0,0,1-.13-0.79,4.934,4.934,0,0,1,.074-0.846,6.277,6.277,0,0,1,.138-0.651A9.746,9.746,0,0,1,217.7,216.716Zm25.423-5.7a1.745,1.745,0,0,1,.22.887,5.275,5.275,0,0,1-.146,1.172q-0.147.635-.383,1.334t-0.537,1.449q-0.3.749-.61,1.5-0.392.929-.725,1.823t-0.586,1.685a14.738,14.738,0,0,0-.39,1.448,5.546,5.546,0,0,0-.139,1.115,1.013,1.013,0,0,0,.245.757,1.263,1.263,0,0,0,.879.236,2.554,2.554,0,0,0,.691-0.081,1.27,1.27,0,0,0,.5-0.269,1.608,1.608,0,0,0,.366-0.5,5.528,5.528,0,0,0,.3-0.765q0.52-1.677,1.131-3.3t1.139-3.092q0.53-1.473.879-2.759a8.819,8.819,0,0,0,.35-2.295,3.437,3.437,0,0,0-.879-2.6,3.392,3.392,0,0,0-2.441-.838,4.8,4.8,0,0,0-1.554.268,9.77,9.77,0,0,0-1.571.7,14.757,14.757,0,0,0-1.522.968q-0.741.537-1.424,1.075l0.716-1.693a1.784,1.784,0,0,0,.1-0.277,0.935,0.935,0,0,0,.032-0.179,0.911,0.911,0,0,0-.4-0.8,1.742,1.742,0,0,0-1.018-.277,2.148,2.148,0,0,0-.887.187,0.88,0.88,0,0,0-.512.464q-0.456,1.237-.855,2.254t-0.765,1.97q-0.366.951-.716,1.888t-0.692,1.993q-0.342,1.059-.675,2.3t-0.692,2.784a3.014,3.014,0,0,0-.1.561c-0.01.168-.016,0.328-0.016,0.48a1.357,1.357,0,0,0,.391,1.14,1.637,1.637,0,0,0,1.009.293,2.294,2.294,0,0,0,.277-0.025,1.2,1.2,0,0,0,.374-0.122,1.363,1.363,0,0,0,.374-0.285,1.109,1.109,0,0,0,.261-0.5c0.086-.347.16-0.662,0.219-0.944s0.112-.545.155-0.79,0.081-.474.114-0.691,0.076-.44.13-0.668q0.147-.649.366-1.408t0.464-1.481q0.245-.723.5-1.334a7.292,7.292,0,0,1,.48-0.985,2.727,2.727,0,0,0,.651-0.382q0.326-.254.684-0.562,0.7-.618,1.424-1.2t1.424-1.034a8.318,8.318,0,0,1,1.351-.724,3.21,3.21,0,0,1,1.22-.269A0.864,0.864,0,0,1,243.119,211.02Z" transform="translate(-106.531 -200.406)"/>
</svg>
